<?xml version="1.0" encoding="UTF-8"?>
<svg id="Layer_17" data-name="Layer 17" xmlns="http://www.w3.org/2000/svg" viewBox="0 0 651.02 673.01">
  <defs>
    <style>
      .cls-1 {
        fill: #588157;
      }
    </style>
  </defs>
  <path class="cls-1" d="M334.1,434.32c0,14.88-2.47,27.96-7.42,39.2-4.96,11.25-11.76,20.68-20.43,28.28-8.67,7.62-18.71,13.4-30.11,17.37-11.42,3.98-23.59,5.96-36.51,5.96H98.11V172.79H254.89c10.18,0,19.39,2.65,27.65,7.94,8.25,5.3,15.26,12.16,21.04,20.59,5.78,8.44,10.25,18.04,13.41,28.79,3.16,10.76,4.74,21.59,4.74,32.51,0,17.2-3.58,33.33-10.72,48.38-7.16,15.06-17.61,26.22-31.36,33.5,16.78,5.95,30.05,16.63,39.81,32.01,9.76,15.39,14.65,34.66,14.65,57.82ZM155.05,231.36v88.83h75.91c9.62,0,17.81-3.98,24.55-11.91,6.73-7.94,10.11-18.85,10.11-32.75s-3.09-24.32-9.29-32.26c-6.18-7.94-13.82-11.91-22.89-11.91h-78.39Zm121.71,190.06c0-6.28-.89-12.32-2.68-18.11-1.79-5.78-4.2-10.83-7.22-15.14-3.03-4.3-6.6-7.69-10.73-10.17-4.13-2.48-8.66-3.72-13.61-3.72h-87.46v92.8h84.58c5.22,0,10.11-1.16,14.65-3.47,4.54-2.31,8.46-5.54,11.76-9.67,3.3-4.13,5.91-9.01,7.84-14.64,1.92-5.62,2.89-11.57,2.89-17.86Z"/>
  <path class="cls-1" d="M457.42,525.13c-16.79,0-31.97-3.45-45.57-10.34-26.93-13.79-45.91-36.95-56.96-69.48-5.2-15.7-7.79-32.21-7.79-49.53s2.53-34.86,7.6-50.73c10.85-32.95,29.84-56.43,56.96-70.44,13.73-7.04,29.11-10.57,46.17-10.57s32.31,3.53,45.77,10.57c44.24,23.2,65.08,74.77,63.16,130.79-.14,3.85-.47,7.06-1,9.62h-161.9c.8,9.94,2.8,18.75,6,26.44,3.2,7.69,7.33,14.27,12.39,19.72,5.06,5.45,10.79,9.62,17.19,12.5,6.39,2.89,13.05,4.33,19.99,4.33,10.65,0,20.71-3.13,30.18-9.38,9.46-6.25,15.93-14.49,19.39-24.76l45.97,15.39c-7.73,19.24-20.05,35.03-36.98,47.36-16.92,12.34-37.11,18.51-60.56,18.51Zm54.37-151.94c-1.34-18.91-7.13-34.06-17.39-45.44-10.26-11.37-22.72-17.07-37.38-17.07-7.2,0-13.93,1.52-20.19,4.57-6.27,3.05-11.79,7.29-16.59,12.74-4.8,5.46-8.73,12.02-11.79,19.72-3.07,7.69-4.87,16.19-5.39,25.48h108.73Z"/>
  <path class="cls-1" d="M386.94,189.52h140.17v41.84h-140.17v-41.84Z"/>
</svg>