<?xml version="1.0" encoding="UTF-8"?>
<svg id="Layer_16" data-name="Layer 16" xmlns="http://www.w3.org/2000/svg" viewBox="0 0 651.02 673.01">
  <defs>
    <style>
      .cls-1 {
        fill: #588157;
        fill-rule: evenodd;
      }
    </style>
  </defs>
  <path class="cls-1" d="M480.07,385.82c-17.94-11.21-41.27-23.71-62.4-14.69-16.21,6.93-26.56,33.43-37.06,46.96-5.39,6.95-11.82,8.03-20.1,4.55-60.85-25.31-107.47-67.74-141.04-126.2-5.69-9.09-4.67-16.25,2.18-24.67,10.15-12.47,22.88-26.63,25.62-43.45,2.74-16.8-4.8-36.46-11.46-51.43-8.5-19.13-18.01-46.4-36.35-57.23-16.87-9.95-39.08-4.38-54.1,8.4-25.93,22.05-38.44,56.61-38.07,90.86,.1,9.73,1.25,19.44,3.42,28.84,5.23,22.6,15.23,43.69,26.49,63.75,8.48,15.12,17.7,29.8,27.65,43.92,32.54,46.18,73.03,86.3,119.91,116.3,23.42,14.98,48.65,28.12,74.78,37.14,29.3,10.11,55.4,20.63,87.05,14.36,33.13-6.57,65.79-27.98,78.94-61.33,3.89-9.87,5.84-20.87,3.66-31.29-4.5-21.56-32.44-34.37-49.14-44.8Z"/>
</svg>