<?xml version="1.0" encoding="UTF-8"?>
<svg id="Layer_18" data-name="Layer 18" xmlns="http://www.w3.org/2000/svg" viewBox="0 0 651.02 673.01">
  <defs>
    <style>
      .cls-1 {
        fill: #588157;
        fill-rule: evenodd;
      }
    </style>
  </defs>
  <path id="Icon" class="cls-1" d="M326.4,143.69c-119.24,0-215.64,90.88-215.64,203.31,0,89.87,61.76,165.95,147.45,192.87,10.71,2.02,14.64-4.37,14.64-9.76,0-4.71-.35-20.87-.35-37.7-59.98,12.12-72.48-24.24-72.48-24.24-9.64-23.56-23.92-29.62-23.92-29.62-19.63-12.45,1.43-12.45,1.43-12.45,21.78,1.35,33.21,20.87,33.21,20.87,19.28,30.97,50.34,22.22,62.83,16.83,1.78-13.13,7.5-22.22,13.57-27.26-47.84-4.71-98.18-22.22-98.18-100.31,0-22.22,8.56-40.39,22.13-54.53-2.14-5.05-9.64-25.92,2.15-53.86,0,0,18.21-5.39,59.26,20.87,17.58-4.45,35.7-6.71,53.91-6.73,18.21,0,36.77,2.36,53.91,6.73,41.06-26.26,59.27-20.87,59.27-20.87,11.79,27.94,4.28,48.81,2.14,53.86,13.93,14.14,22.14,32.31,22.14,54.53,0,78.09-50.34,95.26-98.54,100.31,7.86,6.39,14.64,18.51,14.64,37.7,0,27.26-.35,49.15-.35,55.87,0,5.39,3.93,11.79,14.64,9.77,85.68-26.93,147.45-103,147.45-192.88,.35-112.43-96.39-203.31-215.28-203.31Z"/>
</svg>