<?xml version="1.0" encoding="UTF-8"?>
<svg id="Layer_13" data-name="Layer 13" xmlns="http://www.w3.org/2000/svg" viewBox="0 0 651.02 673.01">
  <defs>
    <style>
      .cls-1 {
        fill: #588157;
      }
    </style>
  </defs>
  <path class="cls-1" d="M451.23,178.73c-14.67,0-26.56,11.76-26.56,26.26s11.89,26.26,26.56,26.26,26.57-11.76,26.57-26.26-11.89-26.26-26.57-26.26Z"/>
  <path class="cls-1" d="M333.12,212.41c-61.53,0-111.6,49.49-111.6,110.32s50.06,110.32,111.6,110.32,111.59-49.49,111.59-110.32-50.06-110.32-111.59-110.32Zm0,180.99c-39.42,0-71.49-31.7-71.49-70.67s32.07-70.67,71.49-70.67,71.48,31.7,71.48,70.67-32.06,70.67-71.48,70.67Z"/>
  <path class="cls-1" d="M421.72,546.73H240.8c-75.05,0-136.11-60.36-136.11-134.56V233.3c0-74.2,61.06-134.56,136.11-134.56h180.92c75.05,0,136.12,60.36,136.12,134.56v178.87c0,74.2-61.07,134.56-136.12,134.56ZM240.8,140.89c-51.55,0-93.48,41.45-93.48,92.41v178.87c0,50.96,41.93,92.42,93.48,92.42h180.92c51.55,0,93.49-41.46,93.49-92.42V233.3c0-50.96-41.94-92.41-93.49-92.41H240.8Z"/>
</svg>