<?xml version="1.0" encoding="UTF-8"?>
<svg id="Layer_12" data-name="Layer 12" xmlns="http://www.w3.org/2000/svg" viewBox="0 0 651.02 673.01">
  <defs>
    <style>
      .cls-1 {
        fill: #588157;
        fill-rule: evenodd;
      }
    </style>
  </defs>
  <path class="cls-1" d="M86.02,231.87h99.26v331.71H86.02V231.87ZM135.04,63.58c33.09,0,60.05,26.83,60.05,59.76s-26.96,59.76-60.05,59.76-58.82-26.83-58.82-59.76,25.74-59.76,58.82-59.76h0Zm109.07,168.29h98.04v46.34c20.83-30.49,55.15-50,94.36-50h26.96c62.5,0,112.75,51.22,112.75,112.2v223.17h-98.04v-30.49h0v-148.78h0c-1.23-37.8-26.96-67.07-64.95-67.07h0c-37.99,0-69.85,29.27-71.08,67.07h0v179.27h-98.04V231.87Z"/>
</svg>