<?xml version="1.0" encoding="UTF-8"?>
<svg id="Layer_15" data-name="Layer 15" xmlns="http://www.w3.org/2000/svg" viewBox="0 0 651.02 673.01">
  <defs>
    <style>
      .cls-1 {
        fill: #588157;
      }
    </style>
  </defs>
  <path class="cls-1" d="M561.86,158.42c-4.74-8.07-10.51-15.04-17.03-20.57-10.5-8.91-22.97-14.08-36.33-14.08H143.94c-13.36,0-25.84,5.17-36.33,14.08-6.52,5.53-12.29,12.5-17.03,20.57-9,15.26-14.36,34.47-14.36,55.31v242.89c0,17.39,3.74,33.63,10.2,47.41,4.02,8.59,9.1,16.22,15,22.55,11.63,12.5,26.42,20,42.52,20H508.5c16.09,0,30.89-7.5,42.52-20,5.9-6.33,10.98-13.96,15-22.55,6.47-13.78,10.2-30.02,10.2-47.41V213.73c0-20.84-5.36-40.05-14.36-55.31Zm-417.92-4.66H508.5c5.68,0,11.12,1.39,16.13,3.96l-155.34,152.81-18.96,18.65-12.69,12.47c-5.98,5.89-16.86,5.89-22.84,0l-12.69-12.47-18.96-18.65L127.8,157.72c5.01-2.56,10.45-3.96,16.14-3.96Zm-45.15,302.86V213.73c0-14.17,3.71-27.2,9.92-37.47l155.46,152.92L104.63,486.11c-3.71-8.71-5.83-18.77-5.83-29.49Zm409.71,59.97H143.94c-8.59,0-16.63-3.19-23.47-8.76l162.66-160.01,18.23,17.93c6.96,6.85,15.91,10.27,24.85,10.27s17.89-3.42,24.85-10.27l18.23-17.93,162.66,160.01c-6.84,5.56-14.88,8.76-23.47,8.76Zm45.15-59.97c0,10.72-2.12,20.78-5.83,29.49l-159.55-156.93,155.46-152.92c6.21,10.27,9.92,23.3,9.92,37.47v242.89Z"/>
</svg>