<?xml version="1.0" encoding="UTF-8"?>
<svg id="Layer_14" data-name="Layer 14" xmlns="http://www.w3.org/2000/svg" viewBox="0 0 651.02 673.01">
  <defs>
    <style>
      .cls-1 {
        fill: #588157;
      }
    </style>
  </defs>
  <path class="cls-1" d="M352.36,294.5l-17.65-25.93L219.17,98.74H93.52l170.9,253.48,17.62,26.13,113.53,168.38h128.42l-171.62-252.23Zm-51.53,61.45l-17.6-26.11L146.54,127.11h57.94l111.46,163.8,17.66,25.96,137.09,201.49h-60.36l-109.51-162.41Z"/>
  <g>
    <polygon class="cls-1" points="283.23 329.84 300.83 355.95 282.04 378.35 140.82 546.73 100.97 546.73 264.42 352.22 283.23 329.84"/>
    <polygon class="cls-1" points="516.54 98.74 352.36 294.5 333.59 316.87 315.93 290.91 334.71 268.56 477.42 98.74 516.54 98.74"/>
  </g>
</svg>